<?xml version="1.0" standalone="no"?>
<!DOCTYPE svg PUBLIC "-//W3C//DTD SVG 20010904//EN"
 "http://www.w3.org/TR/2001/REC-SVG-20010904/DTD/svg10.dtd">
<svg version="1.0" xmlns="http://www.w3.org/2000/svg"
 width="500.000000pt" height="500.000000pt" viewBox="0 0 500.000000 500.000000"
 preserveAspectRatio="xMidYMid meet">
<metadata>
Created by potrace 1.11, written by Peter Selinger 2001-2013
</metadata>
<g transform="translate(0.000000,500.000000) scale(0.100000,-0.100000)"
fill="#000000" stroke="none">
<path d="M755 4895 c-302 -56 -536 -273 -622 -576 -17 -61 -18 -149 -18 -1799
0 -1950 -7 -1775 76 -1947 97 -203 283 -356 509 -420 62 -17 149 -18 1800 -18
1651 0 1738 1 1800 18 226 64 412 217 509 420 83 172 76 -3 76 1947 0 1650 -1
1738 -18 1799 -41 145 -113 265 -219 367 -104 101 -206 159 -348 200 -62 18
-139 19 -1770 21 -1372 1 -1719 -1 -1775 -12z m1645 -2375 l0 -2190 -470 2
-470 3 -3 760 -2 760 -100 0 -100 0 -2 -760 -3 -760 -237 0 c-231 1 -240 2
-305 27 -203 77 -341 234 -383 433 -22 105 -22 3345 0 3450 46 220 226 402
445 449 52 12 216 15 848 15 l782 1 0 -2190z m1825 2175 c222 -47 403 -228
450 -450 11 -55 15 -157 15 -467 l0 -398 -565 0 -565 0 0 -100 0 -100 565 0
565 0 0 -660 0 -660 -565 0 -565 0 0 -100 0 -100 563 -2 562 -3 3 -393 c3
-442 -2 -484 -64 -610 -64 -132 -178 -231 -332 -291 l-67 -26 -812 -3 -813 -3
0 2191 0 2190 778 0 c645 0 789 -3 847 -15z"/>
</g>
</svg>
