<svg id="Layer_5" data-name="Layer 5" xmlns="http://www.w3.org/2000/svg" xmlns:xlink="http://www.w3.org/1999/xlink" viewBox="0 0 1920 977"><defs><style>.cls-1{fill:url(#linear-gradient);}</style><linearGradient id="linear-gradient" x1="960" y1="977" x2="960" y2="443" gradientUnits="userSpaceOnUse"><stop offset="0" stop-color="#03314b"/><stop offset="1" stop-color="#0e2845"/></linearGradient></defs><title>TBG5</title><path class="cls-1" d="M0,443c16.23,0,32.63,1.81,48.41,3.87C62,448.63,75.65,448.73,89,451.94c15.28,3.67,31.44,5.43,46.6,10.08s30.05,9.44,45.09,14.45c65.07,21.67,121.7,65.62,174.67,107.77C369,595.11,382.81,606,397,616.1c3.79,2.69,7.43,5.59,11.24,8.26,3.36,2.36,6.48,6,10,8a68.19,68.19,0,0,1,8.82,5.52c2.11,1.59,9.49,7.6,11.7,7V621.17h8.05V606.11h6.06V594.72l6.56-4.67,6.63,4.08V603h6.71v16.88c2.71.07,6.72-.55,9.22.15,3.22.91,2.33,1.94,3.13,4.81h5.06c2,1.72.77,6.68.77,9.09v40.65c5.05,3.6,29,14,32.83,14.3V563.14h6.06v-4.53l1.6-1.6h11.34c.38-6.75,0-13.52.19-20,2.66-2.67,5.23-5.23,7.91-7.91H552c3.39,3,7.48,5.77,8.09,10.08.8,5.69,0,12.07,0,17.81h12.35l1.41,1.41v80.22l1.88.67c.6-5.73,0-11.3.37-17.17H590V607.18h2.41c2.36-2.59.48-14.6.48-18.25,6.89-1.94,14.8-.93,22-.93v18.78c7.39.51,14.64,0,22,.31v56.78h8.06v12.92h6v-4.61h-2.18c-1.83-1.74-.55-10.35-.55-12.85,6.38-4.48,8-4.47,12.71,0v12.36l-1.68.44V677c2.88,0,6.19-.94,7.64,1.93,1.31,2.6.17,9.11.17,11.9v24.86l1.36.38c1.56-1.89.62-6.7.62-9.13q0-6.26,0-12.52,0-11.82,0-23.63V648.6c0-3.08-1.25-9.51.7-11.65,1.74-1.91,5-.53,7.21-1.16v-3.73h15.9v-16.8c3.37-.57,6.65,0,10-.39v-8.22c2.49-2.49,5.44-3.4,8.68-4.76L721,606v8.88h7.88V631h7.16C733.84,642,735,654.26,735,665.71v42.06h4.91V604.06H760V587.18h22c.24,5.55,0,11.15,0,16.7h4.9v102h7.9V695.67l4.22-4V678.18c4.24-3.22,14.5-1.18,19.58-1.18,1.34-3.23-1-7,1.56-9.88h20.75v9.82H847v28.81l1.94.41q.09,6.35.09,12.69h2.78V707.24l4.07-1.71V657.42l2.06-.71V644.59L859.5,643H881c.11,3.55,0,7.14.06,10.89,4.33-4.57,3-11.75,3-17.52,5.36-3.69,7.25-4.24,12.87-.27v9.37c0,4.57.94,5.76,3.86,9.42,4.22,5.32,2.32,14.87,2.32,21.57l2.89,1.75v27.21l3.12,1.61c17.16-3.73,33.82-8.83,50.83-13.07V666.52c2.22-1.16,5.6-.51,8.18-1.5,3.22-1.23,6.11-3.45,9-5.26,6.55-4.09,13.25-7.91,19.78-12,1.67,5.23,1.14,10.66,1.14,16.13h10.92V651.05h15.89V568.18h8V549.12h7.06v-5.33l8.37-4.45,8.54,4.75v7.75h9V566.9h16.06V572H1089v78.91c24.08-8.09,47.61-18,71.37-27,21.94-8.33,44.83-15.51,66.27-25.23,10.88-4.93,22.71-9.11,34-13,12.32-4.23,24.47-8.92,36.7-13.41,22.83-8.39,45.74-16.92,68.86-24.31,13.66-4.36,27.52-8.06,41.21-12.35,6.87-2.16,13.82-3.94,20.73-6,7.15-2.1,27.64-7.74,29.46-8.26,3.59-1,7.47-1.45,11.13-2.31,8.52-2,17-4.07,25.64-5.8,14.8-3,29.65-4.73,44.52-7.19,5.58-.92,11.42-1.53,17.32-2.17,8.2-.89,17.32-1.92,25.52-1.91,16.87,0,33.66-1.64,50.65-.43,30.8,2.18,61.16,3.82,91.21,9.42,30.91,5.76,61,13.69,91.49,21.72,18.22,4.81,35.83,12.63,53.44,19.22,17.4,6.51,34.17,14.56,51.47,21.15V977H0Z"/></svg>