<svg id="Layer_6" data-name="Layer 6" xmlns="http://www.w3.org/2000/svg" viewBox="0 0 1920 977"><defs><style>.cls-1{fill:#021c3d;}</style></defs><title>TBG6</title><path class="cls-1" d="M.07,561.09c7.91,1,15.83,2,23.74,3.08,23.28,3.24,46,8.88,68.48,15.71,43.1,13.1,84.54,30.45,125.37,49.3,49.23,22.72,97.24,47.84,145.23,73q62.3,32.68,124.72,65.14c5.48,2.86,11,5.63,16.86,8.62,1.54-4.29.65-8.19.81-12s0-7.46,0-11.19V740.86c1.84-.18,3.2-.34,4.57-.44s2.81-.16,4.83-.27c.51-8.92-.06-17.76.35-26.76l6-4.64,6.92,5.06v23h4.38V725.26c4.62-1.06,22.64-1.16,28.48-.2v11.67l7.32.84c.08,1.76.24,3.63.24,5.51,0,19.37,0,38.75.05,58.12,0,1.8-.69,3.86,1,5.49,1.31-2.44,1.31-2.44,1.31-9V759.9h16.42c1.4-5.81,0-11.35,1-17h26c1.27,4,0,8.32.86,12.78L619,757.2V828a646.67,646.67,0,0,0,68.61,23.69c0-7.67.1-14.53.12-21.38s0-13.87,0-20.8V663l6.41-.82c.23-1.74.47-3.6.8-6.14l12.26-.71v-23c5.2-1.41,10-.3,14.79-.82l2.15,3.37h8.36c.14,6.44.28,12.56.42,18.75l6,1V805.38c4,1.37,5.69,1.46,12.54.72.1-1.75.21-3.62.31-5.49s.16-3.46.28-5.77h14.69c.27-2.27.47-4,.75-6.33,9.18-.21,18.32-.09,28.1-.07.18,6.94.07,13.46.09,20s0,12.8,0,19.2v39c4.5,1.21,8.68.62,13.4.43.57-14.48.19-28.82.26-43.15s0-28.77,0-43.78H826c.24-5.24.45-9.91.68-14.88h25.22c.16,3.77.33,7.57.5,11.54l6.56.94v96.69h12.2c0-45.76,0-91.35,0-137.6H886V717.49c4.51-1.17,19.76-1.41,27-.52,1.17,5.78-.11,11.84.79,17.94l4,1.6v70.77h10V778.74l10.47-.75V759.8l8.54-5,6.82,4.43v17h21.55c.51,14-.1,27.46.37,41.14l3.84.31V712.14c4.47-1.17,38.32-1.53,47.32-.64,1.56,1.79.9,4,.9,6.07q.07,38.38,0,76.79V866h15c.13-1.66.36-3.34.37-5,0-8.18,0-16.35,0-24.53,0-1.73.19-3.46.3-5.42l9.67-.77v-23.3l8.35-.69c.15-5.73.3-11.48.46-17.52h18.95c.14,6.19.29,12.28.45,18.89h19.46v50.08l7.75-1.23c0-6.47.08-12.8.1-19.14,0-6.58,0-13.15,0-19.73V779.41c4.13-1.25,40.24-1.58,47.64-.45,0,7.28.08,14.68.09,22.09,0,7.64,0,15.28,0,22.93v22.71c5.41,0,10-1.85,15.1-2.53V666c6.77-1.59,13.38.15,20.27-1.22V633.06h25.25v30.38l5.5,1.47q0,83.15,0,166.67c3.11-.65,2.34-2.61,2.35-4,.06-10.66,0-21.33,0-32V779.3c4.42-1.13,42.81-1.48,51.8-.57,1.31,4,.49,8.28.63,12.45s0,8.17,0,12.26v12.71c5.34.24,62.73-17.24,71.89-21.87,0-3.91.21-8.15-.06-12.36a10,10,0,0,1,3.74-8.83c3.07-2.68,5.76-5.8,8.75-8.59,1-.92,2.34-2,3.55-2,8.14-.18,16.27-.1,25-.1,0,5.92,0,12.28,0,17.59,3-1,58.08-23,84-33.85,37.68-15.83,75.6-31,114.86-42.58,28.68-8.46,57.78-14.91,87.51-18.32a431.69,431.69,0,0,1,77.18-1.74c50,3.25,98.26,14.8,145.83,29.78,6.77,2.13,13.79,4.48,20.67,6.71.14,1.67.07,2.94.07,4.32q0,125,0,250.1c0,.88-.09,1.76-.13,2.65H.07Z"/></svg>